<?xml version="1.0" encoding="UTF-8"?>
<svg id="Layer_2" data-name="Layer 2" xmlns="http://www.w3.org/2000/svg" viewBox="0 0 245.67 142.68">
  <defs>
    <style>
      .cls-1 {
        fill: #fff;
      }

      .cls-1, .cls-2 {
        fill-rule: evenodd;
      }

      .cls-2 {
        fill: #c0282d;
      }

      .cls-3 {
        fill: #c9992c;
      }
    </style>
  </defs>
  <g id="Layer_1-2" data-name="Layer 1">
    <g>
      <path class="cls-2" d="M142.01,7.96L216.14,0c1.32-.14,2.65,1.47,2.38,3.19l-4.34,28.26c-.26,1.73-1.08,3.13-2.4,3.17l-61.53,1.61c-1.33.03-6.71-1.43-6.7-3.19l-3.93-21.92c0-1.76,1.08-3.02,2.4-3.17"/>
      <path class="cls-1" d="M201.2,12.24l-11.45.09s-.01,0-.01,0l.11,14.58h0s0,.01,0,.01l11.58-.09s0,0,0,0h0s-.02-2.62-.02-2.62h0s0-.01,0-.01l-8.49.07-.03-3.51,7.43-.05s0,0,0,0v-2.62s-.02,0-.02,0h0l-7.43.05-.02-3.19,8.36-.07h0s-.02-2.62-.02-2.62h0s0-.01,0-.01M188.2,12.34l-3.21.02s0,0,0,0l-2.66,8.01c-.12.3-.27.82-.48,1.56-.2.74-.34,1.22-.41,1.46h-.09c-.07-.24-.21-.66-.41-1.29-.2-.64-.39-1.2-.56-1.72l-2.81-7.97s0,0,0,0l-3.34.03s0,0,0,0c0,0,0,0,0,0l5.39,14.54s0,0,0,0l3.44-.03s0,0,0,0l5.16-14.61h0s0-.02,0-.01M172.74,12.46l-3.08.02s-.01,0-.01.01l.11,14.57s0,.01.01.01l3.08-.03h0s0,0,0,0l-.11-14.58s0,0,0,0h0M159.75,12.55l-3.08.02h0s0,0,0,.01l.11,14.58h0s0,0,0,0l10.94-.08h.01s-.02-2.69-.02-2.69t0,0s0,0,0,0l-7.85.06-.09-11.89s0,0,0-.01h0"/>
      <path class="cls-3" d="M170.28,110.91c-3.04-11.77-6.41-26.65-9.45-38.42,7.05.91,14.42-.86,20.29-4.87,6.01-4.11,10.27-10.28,15.78-15.03,5.52-4.74,13.46-8.04,20.03-4.88,7.14,3.43,9.14,12.48,10.41,20.3,3.96,24.35,9.08,48.51,15.32,72.37.17.64.49,1.36.92,1.89.62.77,1.84.41,1.94-.64.95-10.42-2.58-34.07-6.14-50.82-2.09-9.86-4.18-19.72-6.27-29.58-1.06-4.95-2.18-10.07-5.17-14.15-3.73-5.09-10.11-7.9-16.43-7.97-6.31-.06-12.48,2.43-17.48,6.28-9.22,7.08-16,19.17-27.58,20.15-3.76.31-8.23-1.33-9.06-5-3.17-13.97-6.68-27.87-10.53-41.67-1.3-4.65-2.87-9.64-6.75-12.53-5.51-4.11-13.29-2.36-19.74,0-11.76,4.29-24.34,11.72-26.52,24.04-.49,2.73-.43,5.6-1.52,8.15-1.12,2.61-4.34,4.23-7.12,3.61-5.7-1.27-11.47,3.28-14.19,8.57-2.83,5.52-3.55,11.89-5.97,17.6-2.44,5.71-7.63,11.12-13.81,10.58-4.97-.45-9.95-.89-14.92-1.33-9.39-.83-20.23-1.14-26.64,5.77-4.21,4.54-5.96,10.94-5.97,17.12,0,5.86-4.03,16.37-3.69,21.68,0,.12,1.63-1.78,3.69-4.02,4.19-4.57,2.69-12.52,4.89-18.3,2.33-6.16,6.68-11.86,12.8-14.3,12.6-5.03,28,4.94,40.05-1.32,6.41-3.34,9.91-10.46,11.84-17.42,1.16-4.21,1.95-8.63,4.31-12.29,2.35-3.67,6.85-6.43,11.03-5.17,4.15,1.27,8.33-2.37,9.95-6.38,1.62-4.02,1.66-8.52,3.11-12.6,3.63-10.27,14.97-15.47,25.49-18.28,2.77-.74,5.93-1.35,8.35.2,2.27,1.45,3.11,4.3,3.78,6.91,7.87,30.58,15.74,61.17,23.62,91.75"/>
    </g>
  </g>
</svg>