<?xml version="1.0" encoding="UTF-8"?>
<svg id="Layer_2" data-name="Layer 2" xmlns="http://www.w3.org/2000/svg" viewBox="0 0 141.84 141.84">
  <g id="Layer_1-2" data-name="Layer 1">
    <g>
      <path d="M70.73,0L0,70.87l71.11,70.97,70.73-70.87L70.73,0ZM70.69,116.85c-25.49,0-46.15-20.66-46.15-46.15s20.66-46.15,46.15-46.15,46.15,20.66,46.15,46.15-20.66,46.15-46.15,46.15Z"/>
      <path d="M70.56,76.26c-1.85,13.91-8.92,23.96-20.17,29.29l-1.08-1.13c-.32-11.56,5.08-21.67,14.84-29.5-12,3.6-23.39,3.87-34.34-3.85,10.72-7.68,23.54-8.12,35.96-2.94-9.92-8.15-16.54-18.54-15.36-32.62,12.83,5.99,18.39,16.77,20.72,30.17,1.53-12.96,9.02-24.36,20.88-29.27.28.22.39.38.4.56.43,12.45-5.65,22.85-15.55,31.08,12.05-5.34,23.65-3.81,35.15,2.56-.08-14.47-6.98-26.55-17.75-33.62-.38-.55-.93-.99-1.36-1.26-19.44-12.32-45.17-6.4-57.29,13.13-11.84,19.07-6.36,44.75,12.79,56.32.62.41,1.31,1.05,1.74,1.31,11.68,6.95,27.04,7.72,40.91.38-12.99-6.95-18.6-17.56-20.49-30.61Z"/>
      <path d="M75.58,73.82c10.46,8.39,16.32,18.03,15.89,32.73,12.72-7.75,20.45-20.58,20.37-34.97-12.54,7.45-24.38,7.4-36.25,2.24Z"/>
    </g>
  </g>
</svg>