<?xml version="1.0" encoding="UTF-8"?>
<svg id="Layer_2" data-name="Layer 2" xmlns="http://www.w3.org/2000/svg" viewBox="0 0 152.79 152.73">
  <g id="Layer_1-2" data-name="Layer 1">
    <g>
      <polygon points="76.34 0 67.61 12.2 84.92 12.12 76.34 0"/>
      <polygon points="67.25 12.06 55.91 2.86 51.05 15.48 38.62 9.89 37.53 24.43 51.61 16.99 67.25 12.06"/>
      <polygon points="116.25 25.31 116.93 24.63 114.96 10.49 102.11 16.03 97.36 2.98 85.78 12.24 101.83 17.25 116.25 25.31"/>
      <path d="M11.33,84.37l1.41-1.09c-2.51-22.2,6.3-43.56,24.7-58.07l-15.02-2.83,2.16,14.22-14.39,1.47,5.86,13.26-13.32,5.15,8.96,11.2L0,76.24l11.33,8.13Z"/>
      <polygon points="127.15 36.53 128.39 35.36 130.4 22.4 117.34 24.61 116.47 25.82 127.15 36.53"/>
      <path d="M127.64,36.76l8.62,15.55c.41-.11.74-.58.87-.91l5.42-13.35-14.26-1.74-.65.45Z"/>
      <polygon points="136.49 52.81 140.92 67.64 150.24 56.75 137.54 51.73 136.49 52.81"/>
      <path d="M141.21,85.03l11.58-8.72-12.04-8.56-.82,18.56-4.17,14.89-8.01,13.92c-3.77,6.56-18.91,18.24-26.97,20.75l-15.16,4.72,11.47,9.42,4.84-12.81,12.17,5.48,1.73-14.53,14.62,2.28-2.22-14.5,14.29-1.51-5.7-13.15,13.43-5.15-9.04-11.1Z"/>
      <path d="M16.44,100.27l-4.05-16.04c-.32.05-.55.22-.7.42l-9.08,11.39,12.79,5.01,1.04-.77Z"/>
      <path d="M24.95,115.56l-8.49-14.56c-.35.14-.57.42-.69.69l-5.57,12.76,14.21,1.58.55-.47Z"/>
      <polygon points="25.53 115.94 24.43 116.85 22.33 130.51 36.24 128.34 36.93 127.29 25.53 115.94"/>
      <polygon points="37.49 127.88 36.35 128.88 37.8 142.2 50.62 136.79 55.58 149.87 67.13 140.47 51.24 135.63 37.49 127.88"/>
      <polygon points="76.55 152.73 84.49 140.91 67.84 140.79 76.55 152.73"/>
      <path d="M118.91,114.2c7.86-9.73,13.01-20.66,13.92-32.97,1.95-26.47-14.2-50.17-38.12-58.59-24.82-8.74-51.74.49-66.28,21.68-14.7,21.44-13.06,49.94,3.82,69.51.26.2.44.49.79.81,22.39,25.43,62.62,25.8,85.41-.18-21.01-3.7-36.04-16.63-42.78-36.98-6.69,20.18-22.26,33.67-42.4,36.83-.36-.14-.56-.33-.7-.61,6.07-19.7,21.99-33.47,42.9-36.94-11.33-18.38-10.89-39.2.32-56.85,11.24,17.71,11.65,38.4.34,56.88,20.83,3.67,36.65,17.22,42.77,37.41ZM103.56,57.86c3.76,0,6.81,3.05,6.81,6.81s-3.05,6.81-6.81,6.81-6.81-3.05-6.81-6.81,3.05-6.81,6.81-6.81ZM75.67,104.5c3.76,0,6.81,3.05,6.81,6.81s-3.05,6.81-6.81,6.81-6.81-3.05-6.81-6.81,3.05-6.81,6.81-6.81ZM46.15,70.9c-3.76,0-6.81-3.05-6.81-6.81s3.05-6.81,6.81-6.81,6.81,3.05,6.81,6.81-3.05,6.81-6.81,6.81Z"/>
    </g>
  </g>
</svg>