<?xml version="1.0" encoding="UTF-8"?>
<svg id="Layer_2" data-name="Layer 2" xmlns="http://www.w3.org/2000/svg" viewBox="0 0 119.39 113.1">
  <g id="Layer_1-2" data-name="Layer 1">
    <g>
      <path d="M69.66,61.53c13.55,10.96,22.34,24.33,21.18,42.69-17.18-7.21-25.91-19.79-30.86-38.5-3.76,18.21-11.76,29.41-28.34,39.56,18.71,10.53,39.75,10.76,59.96-1.36,14.51-8.71,27.82-25.64,27.71-47-17.51,9.74-32.88,10-49.65,4.62Z"/>
      <path d="M50.33,51.36c-13.63-10.43-23.17-23.77-21.56-42.6,17.99,7.4,25.87,20.09,30.97,38.88,3.72-19.58,12.79-31.18,28.81-40.25-20.62-10.33-40.64-9.86-60.24,1.47C13.87,17.22.35,33.29.02,55.83c16.55-9.09,32.88-10.08,50.32-4.47Z"/>
      <path d="M50.37,62.13c-19.98,5.13-34.45,3.6-50.37-4.81.99,21.41,11.31,37.34,29.73,47.27-.29-19.1,7.68-32.24,20.64-42.46Z"/>
      <path d="M69.02,51.4c17.64-5.91,32.6-5.1,50.37,4.13-.64-21.65-11.61-36.45-29.14-47.43-.86,19.72-7.91,31.88-21.23,43.3Z"/>
    </g>
  </g>
</svg>