<?xml version="1.0" encoding="UTF-8"?>
<svg id="Layer_2" data-name="Layer 2" xmlns="http://www.w3.org/2000/svg" viewBox="0 0 129.98 131.51">
  <g id="Layer_1-2" data-name="Layer 1">
    <g>
      <polygon points="64.98 0 56.18 12.64 73.67 12.5 64.98 0"/>
      <polygon points="9.01 1.06 .18 13.68 17.64 13.52 9.01 1.06"/>
      <polygon points="121.25 .98 112.31 13.65 129.77 13.59 121.25 .98"/>
      <path d="M17.13,36.58l-8.07-12.34L.1,36.98c5.65.2,10.74.73,17.03-.4Z"/>
      <polygon points="112.41 37.11 129.79 36.86 121.15 24.25 112.41 37.11"/>
      <path d="M69.83,82.05l-4.82-55.74-4.33,56.04c3.08.2,5.75.6,9.15-.3Z"/>
      <polygon points="0 60.46 17.91 60.44 8.94 47.75 0 60.46"/>
      <polygon points="121.37 47.57 112.3 60.45 129.98 60.26 121.37 47.57"/>
      <polygon points="0 83.68 17.65 83.47 8.98 70.98 0 83.68"/>
      <polygon points="112.26 83.56 129.86 83.47 121.09 70.95 112.26 83.56"/>
      <rect x="48.88" y="90.92" width="32.88" height="40.58"/>
      <polygon points="17.67 106.59 9 94.08 .14 106.72 17.67 106.59"/>
      <polygon points="121.13 94.14 112.59 106.82 129.66 106.56 121.13 94.14"/>
      <polygon points=".1 130.32 17.67 129.99 8.94 117.66 .1 130.32"/>
      <polygon points="112.31 130.33 129.81 129.92 121.33 117.46 112.31 130.33"/>
    </g>
  </g>
</svg>